<svg width="190" height="141" viewBox="0 0 190 141" fill="none" xmlns="http://www.w3.org/2000/svg">
<path d="M0.0240021 66V0.720001H21.528C28.376 0.720001 33.496 2.448 36.888 5.904C40.344 9.36 42.072 13.968 42.072 19.728V24.816C42.072 30.576 40.344 35.216 36.888 38.736C33.496 42.192 28.376 43.92 21.528 43.92H11.544V66H0.0240021ZM21.528 11.76H11.544V32.88H21.528C24.344 32.88 26.488 32.176 27.96 30.768C29.496 29.36 30.264 27.376 30.264 24.816V19.728C30.264 17.232 29.496 15.28 27.96 13.872C26.488 12.464 24.344 11.76 21.528 11.76Z" fill="black"/>
<path d="M52.6755 0.720001H64.4835V42.576C64.4835 46.8 65.4115 50.128 67.2675 52.56C69.1235 54.928 72.0995 56.112 76.1955 56.112C80.2915 56.112 83.2675 54.928 85.1235 52.56C86.9795 50.128 87.9075 46.8 87.9075 42.576V0.720001H99.7155V42.576C99.7155 49.936 97.7635 55.856 93.8595 60.336C89.9555 64.752 84.0675 66.96 76.1955 66.96C68.2595 66.96 62.3395 64.752 58.4355 60.336C54.5955 55.856 52.6755 49.936 52.6755 42.576V0.720001Z" fill="black"/>
<path d="M116.274 66V0.720001H138.354C146.162 0.720001 152.114 2.896 156.21 7.248C160.306 11.6 162.354 18 162.354 26.448V40.176C162.354 48.688 160.306 55.12 156.21 59.472C152.114 63.824 146.162 66 138.354 66H116.274ZM137.874 11.76H127.794V54.96H137.874C142.418 54.96 145.65 53.84 147.57 51.6C149.554 49.36 150.546 45.552 150.546 40.176V26.448C150.546 21.136 149.554 17.36 147.57 15.12C145.65 12.88 142.418 11.76 137.874 11.76Z" fill="black"/>
<path d="M189.107 66H177.587V0.720001H189.107V66Z" fill="black"/>
<path d="M0.0240021 140V74.72H10.584C15.64 81.312 20.44 88.288 24.984 95.648C29.528 102.944 33.656 110.464 37.368 118.208L36.504 98.72V74.72H47.544V140H36.984C32.888 131.936 28.632 123.84 24.216 115.712C19.864 107.52 15.224 99.808 10.296 92.576L11.064 115.04V140H0.0240021Z" fill="black"/>
<path d="M101.459 140V112.448H77.0753V140H65.5553V74.72H77.0753V101.408H101.459V74.72H112.979V140H101.459Z" fill="black"/>
<path d="M177.169 100.448V114.176C177.169 122.496 175.089 129.056 170.929 133.856C166.769 138.592 160.689 140.96 152.689 140.96C144.625 140.96 138.513 138.592 134.353 133.856C130.257 129.056 128.209 122.496 128.209 114.176V100.448C128.209 92.128 130.257 85.6 134.353 80.864C138.513 76.128 144.625 73.76 152.689 73.76C160.689 73.76 166.769 76.128 170.929 80.864C175.089 85.6 177.169 92.128 177.169 100.448ZM165.361 100.448C165.361 95.2 164.337 91.264 162.289 88.64C160.241 85.952 157.041 84.608 152.689 84.608C148.337 84.608 145.137 85.952 143.089 88.64C141.041 91.264 140.017 95.2 140.017 100.448V114.176C140.017 119.424 141.041 123.392 143.089 126.08C145.137 128.768 148.337 130.112 152.689 130.112C157.041 130.112 160.241 128.768 162.289 126.08C164.337 123.392 165.361 119.424 165.361 114.176V100.448Z" fill="black"/>
</svg>
